<?xml version="1.0" encoding="UTF-8"?>
<svg width="122px" height="104px" viewBox="0 0 122 104" version="1.1" xmlns="http://www.w3.org/2000/svg" xmlns:xlink="http://www.w3.org/1999/xlink">
    <!-- Generator: Sketch 51.2 (57519) - http://www.bohemiancoding.com/sketch -->
    <title>bear@3x</title>
    <desc>Created with Sketch.</desc>
    <defs></defs>
    <g id="bear" stroke="none" stroke-width="1" fill="none" fill-rule="evenodd">
        <g transform="translate(15.000000, 10.000000)" fill-rule="nonzero">
            <ellipse id="outer-ear" fill="#E34F44" cx="18.2205882" cy="8.37931034" rx="8.33823529" ry="8.37931034"></ellipse>
            <ellipse id="outer-ear" fill="#E34F44" cx="66.3970588" cy="8.37931034" rx="8.33823529" ry="8.37931034"></ellipse>
            <ellipse id="inner-ear" fill="#6D2620" cx="18.5294118" cy="8.68965517" rx="5.55882353" ry="5.5862069"></ellipse>
            <ellipse id="inner-ear" fill="#6D2620" cx="66.7058824" cy="8.68965517" rx="5.55882353" ry="5.5862069"></ellipse>
            <path d="M43.809784,89.5539573 C61.7215487,89.5539573 84,75.2167462 84,66.4137931 C84,49.9627019 72.6339934,8.61973953 57.7812694,8.34524134 C42.9285454,8.07074316 38.7507122,8.34524134 26.532799,8.07074316 C14.3148859,7.79624498 0,49.8180237 0,66.4137931 C0,78.7935952 25.8980192,89.5539573 43.809784,89.5539573 Z" id="face" fill="#E34F44"></path>
            <path d="M31.2978755,35.2407603 C32.0185029,31.1120357 36.538302,27.9310345 42.0064931,27.9310345 C47.9760415,27.9310345 52.8153166,31.7220838 52.8153166,36.3985801 C52.8153166,36.4197438 52.8152175,36.4408893 52.8150196,36.4620165 L56.4263349,66.8187019 C57.0787479,72.3028793 53.1618288,77.2775687 47.6776514,77.9299816 C47.2856128,77.9766196 46.8911563,78 46.4963533,78 L37.4929838,78 C31.9701363,78 27.4929838,73.5228475 27.4929838,68 C27.4929838,67.612163 27.5155464,67.2246545 27.5605573,66.8394382 L31.2527283,35.2407603 L31.2978755,35.2407603 Z" id="snout" fill="#F3B4AF"></path>
            <path d="M42.5,75.7778773 C48.2989899,75.7778773 53,72.998955 53,69.5709807 C53,66.1430064 32,66.1430064 32,69.5709807 C32,72.998955 36.7010101,75.7778773 42.5,75.7778773 Z" id="nose" fill="#6D2620"></path>
            <ellipse id="eye" fill="#6D2620" cx="26.5588235" cy="34.137931" rx="4.32352941" ry="4.34482759"></ellipse>
            <ellipse id="eye" fill="#6D2620" cx="58.0588235" cy="34.137931" rx="4.32352941" ry="4.34482759"></ellipse>
        </g>
    </g>
</svg>