<?xml version="1.0" encoding="UTF-8"?>
<svg width="122px" height="104px" viewBox="0 0 122 104" version="1.1" xmlns="http://www.w3.org/2000/svg" xmlns:xlink="http://www.w3.org/1999/xlink">
    <!-- Generator: Sketch 51.2 (57519) - http://www.bohemiancoding.com/sketch -->
    <title>Cat@3x</title>
    <desc>Created with Sketch.</desc>
    <defs></defs>
    <g id="Cat" stroke="none" stroke-width="1" fill="none" fill-rule="evenodd">
        <g id="cat">
            <path d="M26,8.5 C32.3934426,8.5 38.7868852,19.8333333 45.1803279,42.5 L6.81967213,42.5 C13.2131148,19.8333333 19.6065574,8.5 26,8.5 Z" id="outer-ear" fill="#E34F44" transform="translate(26.000000, 25.500000) rotate(-38.000000) translate(-26.000000, -25.500000) "></path>
            <path d="M28.8890869,17.8871395 C32.9088126,17.8871395 36.9285382,25.0127044 40.9482638,39.2638343 L16.82991,39.2638343 C20.8496356,25.0127044 24.8693613,17.8871395 28.8890869,17.8871395 Z" id="inner-ear" fill="#6D2620" transform="translate(28.889087, 28.575487) rotate(-38.000000) translate(-28.889087, -28.575487) "></path>
            <path d="M95,8.5 C101.393443,8.5 107.786885,19.8333333 114.180328,42.5 L75.8196721,42.5 C82.2131148,19.8333333 88.6065574,8.5 95,8.5 Z" id="outer-ear" fill="#E34F44" transform="translate(95.000000, 25.500000) scale(-1, 1) rotate(-38.000000) translate(-95.000000, -25.500000) "></path>
            <path d="M92.1109131,17.8871395 C96.1306387,17.8871395 100.150364,25.0127044 104.17009,39.2638343 L80.0517362,39.2638343 C84.0714618,25.0127044 88.0911874,17.8871395 92.1109131,17.8871395 Z" id="inner-ear" fill="#6D2620" transform="translate(92.110913, 28.575487) scale(-1, 1) rotate(-38.000000) translate(-92.110913, -28.575487) "></path>
            <ellipse id="face" fill="#E34F44" cx="60" cy="57.5" rx="43" ry="36.5"></ellipse>
            <circle id="eye" fill="#000000" opacity="0.67" cx="82" cy="53" r="6"></circle>
            <circle id="eye" fill="#000000" opacity="0.67" cx="39" cy="53" r="6"></circle>
            <polygon id="nose" fill-opacity="0.67" fill="#000000" opacity="0.67" transform="translate(60.500000, 69.000000) scale(1, -1) translate(-60.500000, -69.000000) " points="60.5 66 67 72 54 72"></polygon>
            <path d="M82.421875,65.5588235 L108.578125,51.4411765" id="whisker" stroke="#F3B4AF" stroke-width="2" stroke-linecap="round"></path>
            <path d="M82.4230769,71.5 L114.67697,71.5" id="whisker" stroke="#F3B4AF" stroke-width="2" stroke-linecap="round"></path>
            <path d="M82.421875,91.5588235 L108.578125,77.4411765" id="whisker" stroke="#F3B4AF" stroke-width="2" stroke-linecap="round" transform="translate(95.500000, 84.500000) scale(1, -1) translate(-95.500000, -84.500000) "></path>
            <path d="M11.421875,65.5588235 L37.578125,51.4411765" id="whisker" stroke="#F3B4AF" stroke-width="2" stroke-linecap="round" transform="translate(24.500000, 58.500000) scale(-1, 1) translate(-24.500000, -58.500000) "></path>
            <path d="M5.42307692,71.5 L37.6769699,71.5" id="whisker" stroke="#F3B4AF" stroke-width="2" stroke-linecap="round" transform="translate(21.500000, 71.500000) scale(-1, 1) translate(-21.500000, -71.500000) "></path>
            <path d="M11.421875,91.5588235 L37.578125,77.4411765" id="whisker" stroke="#F3B4AF" stroke-width="2" stroke-linecap="round" transform="translate(24.500000, 84.500000) scale(-1, -1) translate(-24.500000, -84.500000) "></path>
        </g>
    </g>
</svg>