<?xml version="1.0" encoding="UTF-8"?>
<svg width="274px" height="94px" viewBox="0 0 274 94" version="1.1" xmlns="http://www.w3.org/2000/svg" xmlns:xlink="http://www.w3.org/1999/xlink">
    <!-- Generator: Sketch 51.2 (57519) - http://www.bohemiancoding.com/sketch -->
    <title>log in logo</title>
    <desc>Created with Sketch.</desc>
    <defs>
        <polygon id="path-1" points="0 7.26586627 67.9466943 7.26586627 67.9466943 86.897698 0 86.897698"></polygon>
        <polygon id="path-3" points="42.2312613 25.0455888 100.502658 25.0455888 100.502658 90 42.2312613 90"></polygon>
    </defs>
    <g id="Wireframes" stroke="none" stroke-width="1" fill="none" fill-rule="evenodd">
        <g id="Log-In-Screen" transform="translate(-50.000000, -148.000000)">
            <g id="Group">
                <g id="log-in-logo" transform="translate(50.000000, 148.000000)">
                    <g id="Edify-Title" transform="translate(115.000000, 16.000000)" fill="#FFFFFF">
                        <path d="M32.5376189,43.5013151 C32.5376189,42.5983296 32.2815937,41.7403176 31.7709898,40.9286847 C31.2589394,40.1163491 30.6326179,39.4846106 29.8898556,39.0327665 C28.820191,39.6652077 27.4388122,40.2175397 25.7435494,40.6911679 C24.0482866,41.1654988 22.2481547,41.4023129 20.3446002,41.4023129 C18.3000149,41.4023129 16.4890345,41.030578 14.9102125,40.2850001 C13.3299441,39.5408276 12.2848695,38.4235148 11.7749888,36.934467 L28.9843654,34.4299998 C30.5631873,34.2044291 31.7941333,33.6851246 32.67648,32.872789 C33.5588267,32.0597506 34,30.8869235 34,29.3521995 C34,27.2763869 33.5935419,25.3579818 32.781349,23.5983898 C31.9684329,21.838095 30.8307843,20.3258578 29.3669567,19.0623808 C27.9045755,17.7989038 26.1623024,16.805971 24.1415839,16.0835826 C22.1215886,15.3618969 19.8788369,15 17.4183914,15 C15.2334985,15 13.0977856,15.3281667 11.0076365,15.9816893 C8.91821063,16.6366173 7.05877348,17.6520369 5.43366446,19.0279479 C3.80710897,20.4052643 2.49588394,22.1655591 1.49709642,24.3088321 C0.497585671,26.4528078 0,29.0134921 0,31.9922902 C0,35.0167647 0.497585671,37.6568555 1.49709642,39.9132652 C2.49588394,42.1703777 3.86641424,44.0424037 5.60868733,45.5314514 C7.35023718,47.0219046 9.39409925,48.1385147 11.7395503,48.8826872 C14.0842781,49.6275624 16.6278956,50 19.3689562,50 C20.9940652,50 22.7356151,49.8650792 24.5950522,49.5938322 C26.4523197,49.3225852 28.1237157,48.8046861 29.6106869,48.0366214 C31.5619749,47.0443914 32.5376189,45.5314514 32.5376189,43.5013151 Z M10.938206,29.3521995 C10.9837698,28.6305138 11.1349259,27.9200715 11.3909511,27.2194671 C11.6455298,26.5202682 12.0295675,25.8892324 12.5408947,25.3242516 C13.0514986,24.7606762 13.7139818,24.2982914 14.526898,23.9363945 C15.3390909,23.5752003 16.3038863,23.3946032 17.4183914,23.3946032 C19.1360745,23.3946032 20.4371743,23.8464473 21.319521,24.7487301 C22.2025909,25.6524183 22.713918,26.5547011 22.8520559,27.4562812 L10.938206,29.3521995 Z" id="Fill-1"></path>
                        <path d="M71,42.4612931 L71,9.55459131 C71,8.39798531 70.8654512,7.46117048 70.5928312,6.74270557 C70.3216202,6.02568191 69.9144515,5.45854863 69.371325,5.04202634 C68.8281985,4.62550406 68.1603854,4.34734211 67.3692945,4.20898177 C66.5767948,4.0699008 65.6835595,4 64.6888843,4 C63.6470113,4 62.6297938,4.08215145 61.6344142,4.24285123 C60.6390345,4.40643351 59.9155703,4.55560326 59.4626127,4.69468423 L59.4626127,15.9415066 C58.9208951,15.7101854 58.2178597,15.5141749 57.3591422,15.3513132 C56.4990158,15.1898928 55.6170517,15.1077414 54.7125453,15.1077414 C52.2237439,15.1077414 49.9047136,15.4673341 47.7561587,16.1843578 C45.6068994,16.9028227 43.7288511,18.0010579 42.1234228,19.481946 C40.5179944,20.9635547 39.2619704,22.8263749 38.3567596,25.0711274 C37.4515487,27.3158799 37,29.9649039 37,33.0196409 C37,35.7962159 37.4177354,38.2852609 38.256024,40.4831726 C39.0914949,42.6810843 40.3137056,44.5676853 41.9198384,46.1408135 C43.5252668,47.7146625 45.4934839,48.9173886 47.8251942,49.7511538 C50.1533824,50.5834777 52.7887082,51 55.7304672,51 C58.4453952,51 60.8426189,50.6641879 62.9235471,49.994005 C65.0044753,49.3231015 66.7014814,48.547707 68.0145654,47.6678217 C70.0046203,46.3728554 71,44.6368654 71,42.4612931 Z M59.5309437,40.4478619 C59.168155,40.7721439 58.6588418,41.0618359 58.0044131,41.3154965 C57.3478711,41.5705984 56.6124314,41.6974287 55.7987983,41.6974287 C53.4917435,41.6974287 51.7271107,40.9681544 50.5049,39.5110471 C49.2833938,38.0524984 48.6733451,35.8898974 48.6733451,33.0196409 C48.6733451,30.1032643 49.3277737,27.9291333 50.6415622,26.4936447 C51.9518284,25.0595974 53.8305812,24.3418531 56.2735937,24.3418531 C57.5401844,24.3418531 58.6264374,24.6192944 59.5309437,25.1748977 L59.5309437,40.4478619 Z" id="Fill-3"></path>
                        <path d="M84.5003627,12 C86.4570009,12 88.0298566,11.4228707 89.2182041,10.266536 C90.4065517,9.11158526 91,7.68952194 91,5.999654 C91,4.31186206 90.4065517,2.88979874 89.2182041,1.73346404 C88.0298566,0.577821348 86.4570009,0 84.5003627,0 C82.5437245,0 80.9715944,0.577821348 79.7825213,1.73346404 C78.5941738,2.88979874 78,4.31186206 78,5.999654 C78,7.68952194 78.5941738,9.11158526 79.7825213,10.266536 C80.9715944,11.4228707 82.5437245,12 84.5003627,12" id="Fill-5"></path>
                        <path d="M91,49.3824003 L91,21.4843989 C91,20.3424087 90.8468677,19.4174322 90.5413359,18.7080465 C90.2343387,18.0000837 89.7991208,17.4401172 89.2349493,17.0288584 C88.6700452,16.6175997 87.9761876,16.3429528 87.1526438,16.2063409 C86.3291,16.0690175 85.3985835,16 84.3640249,16 C83.328001,16 82.3058982,16.0811133 81.294053,16.2404939 C80.2822078,16.4012975 79.5172793,16.5265251 79,16.6175997 L79,44.5156011 C79,45.6590143 79.1523996,46.5839908 79.4593968,47.2919535 C79.7649286,48.0013393 80.2001465,48.5598828 80.764318,48.9711416 C81.3299548,49.3824003 82.0230797,49.6570472 82.8473562,49.7936591 C83.6701673,49.9309825 84.5999512,50 85.6352424,50 C86.669801,50 87.6926365,49.9188867 88.705947,49.7595061 C89.7170595,49.5987025 90.481988,49.4734749 91,49.3824003" id="Fill-7"></path>
                        <path d="M119.609898,4.33433557 C118.015315,3.44525195 115.534458,3 112.164492,3 C110.069342,3 108.100397,3.2520964 106.256239,3.75273854 C104.411373,4.25551107 102.806863,5.04162575 101.440584,6.11321296 C100.074305,7.18551031 98.9923426,8.55322203 98.1961146,10.2177684 C97.3991775,11.883735 97,13.877782 97,16.2041701 L97,44.5270227 C97,45.6674926 97.1474759,46.5906625 97.4438457,47.2972426 C97.7395065,48.0052429 98.1620817,48.5634056 98.7087351,48.973151 C99.2546795,49.3836066 99.9254112,49.657717 100.723057,49.7940621 C101.519285,49.9311173 102.41903,50 103.421583,50 C104.468094,50 105.480573,49.9311173 106.460437,49.7940621 C107.439592,49.657717 108.157119,49.5206618 108.6116,49.3836066 L108.6116,27.6969253 L116.466818,27.6969253 C117.650879,27.6969253 118.595292,27.3439903 119.301475,26.6367002 C120.008366,25.9301201 120.361458,24.7789983 120.361458,23.1819143 C120.361458,22.2701065 120.235252,21.4371232 119.984969,20.6850948 C119.734685,19.9323563 119.473766,19.306021 119.200085,18.8032485 L107.99688,18.8032485 L107.99688,16.6146257 C107.99688,14.9720934 108.544243,13.8209715 109.63755,13.1598398 C110.730147,12.4994183 112.255247,12.1677873 114.213556,12.1677873 C115.443704,12.1677873 116.523539,12.2473219 117.458735,12.4071013 C118.390386,12.5668807 119.290839,12.7607464 120.156551,12.9886983 C120.610323,12.6244013 121.032898,12.0768905 121.420023,11.3468762 C121.806438,10.617572 122,9.79666087 122,8.88414293 C122,6.74025837 121.202354,5.2234192 119.609898,4.33433557" id="Fill-9"></path>
                        <path d="M157.412087,16.025202 C156.352285,15.3419705 155.018754,15 153.407911,15 C151.428753,15 149.610822,15.4334937 147.954836,16.2990622 C147.631664,18.1678389 147.251884,20.0699611 146.815494,22.0061386 C146.376955,23.9430255 145.906171,25.8799124 145.400274,27.8160898 C144.892945,29.7529767 144.375583,31.6331051 143.846757,33.4543464 C143.317214,35.2777161 142.776922,36.9641557 142.224449,38.5129558 L141.948571,38.5129558 L136.494779,19.7166389 C135.988166,17.8939787 135.205675,16.6523845 134.148022,15.9918564 C133.08822,15.3313283 131.754688,15 130.143846,15 C128.854742,15 127.66954,15.239805 126.58824,15.7179962 C125.50694,16.1961873 124.643477,16.7552594 124,17.3923746 C124.734481,20.4459868 125.43815,23.1455673 126.105991,25.4918255 C126.771681,27.8395027 127.417308,29.923962 128.038572,31.7459128 C128.659835,33.568573 129.257452,35.1869023 129.833572,36.5987723 C130.407542,38.0113517 130.94855,39.2877105 131.45588,40.4264298 C132.513533,42.7506941 133.492363,44.3342587 134.389505,45.1771238 C135.286647,46.0199889 136.126464,46.5556481 136.909672,46.7826825 C135.712288,48.2413782 134.377324,49.6638904 132.904778,51.0544759 C131.432233,52.4436424 129.958971,53.7086495 128.487143,54.8480782 C128.716444,56.670029 129.429428,58.1514282 130.626812,59.2908569 C131.823479,60.4295762 133.388461,61 135.321759,61 C136.425989,61 137.482925,60.8517182 138.496868,60.555864 C139.50866,60.2585909 140.521886,59.71158 141.534395,58.9148313 C142.546188,58.1173731 143.605274,57.0119995 144.708787,55.6001296 C145.813734,54.1875501 147.0104,52.3641804 148.299505,50.1321488 C149.081279,48.8110926 149.887417,47.3190511 150.715769,45.6553149 C151.54412,43.9922882 152.348825,42.2270961 153.132033,40.35761 C153.913807,38.4902523 154.661187,36.5881301 155.375604,34.6512431 C156.088588,32.7143562 156.709852,30.8349374 157.239395,29.0115676 C157.768221,27.1903264 158.193862,25.4698316 158.516317,23.8515023 C158.838056,22.2345919 159,20.8099513 159,19.5797088 C159,17.8939787 158.46974,16.7084336 157.412087,16.025202" id="Fill-11"></path>
                    </g>
                    <g id="Edify-Logo">
                        <mask id="mask-2" fill="white">
                            <use xlink:href="#path-1"></use>
                        </mask>
                        <g id="Clip-2"></g>
                        <path d="M28.550839,7.45179059 C27.8316112,7.04532669 26.9120414,7.329753 26.557436,8.0668994 L0.162377193,62.9867669 C-0.217270902,63.7770587 0.0892523622,64.739581 0.859567362,65.1765543 L39.0197103,86.6689483 C39.4424319,86.9090868 39.9312664,86.9622322 40.3960599,86.8185428 C40.8608533,86.6768217 41.231486,86.3589335 41.4398417,85.9258969 L67.8098578,31.0572065 C68.1273999,30.398794 67.8749689,29.6114547 67.2318711,29.2492786 L28.550839,7.45179059 Z" id="Fill-1" fill="#FFFFFF" mask="url(#mask-2)"></path>
                        <path d="M74.3382364,24.376372 C74.7636948,24.1298462 75.1881401,23.9149001 75.6095465,23.7345899 C76.1028755,23.5227 76.1352914,22.8289642 75.6693132,22.5610457 L37.7376759,0.685446895 C36.3762092,-0.0989533582 34.7260387,-0.22527236 33.2784673,0.384929915 C32.8975808,0.545884772 32.5096033,0.740456783 32.1175738,0.967627246 C31.2099293,1.49531469 30.3124148,2.18191959 29.4544072,2.99993699 C28.7534139,3.67024267 28.8800384,4.82952512 29.7198121,5.31340839 L68.7201603,27.8083777 C69.300607,28.1435306 70.0340162,28.0304547 70.4888514,27.5363844 C71.6922907,26.2293902 73.0010816,25.1526226 74.3382364,24.376372" id="Fill-4" fill="#FFFFFF"></path>
                        <mask id="mask-4" fill="white">
                            <use xlink:href="#path-3"></use>
                        </mask>
                        <g id="Clip-21"></g>
                        <path d="M79.1179489,28.7468561 L90.190507,37.8517803 L100.122455,46.10875 C100.379563,46.2564773 100.637665,45.9176894 100.424235,45.7118561 L78.3049289,25.3432197 C78.3049289,25.3432197 76.7851076,24.3199621 74.2040917,26.0680682 C74.1018438,26.134053 73.9995959,26.2000379 73.8973479,26.2689773 C72.6038619,27.1474621 71.3838356,28.2967803 70.2888892,29.6696591 C70.2816094,29.6926389 60.9290668,49.3682702 42.2312613,88.696553 L44.1094467,89.7729924 C44.974087,90.2683712 46.0809457,89.9246591 46.5068133,89.0294318 L71.9347832,31.74375 C72.0052648,31.5822348 72.1511914,31.4660227 72.3249137,31.4305682 L72.5899641,31.3754167 C75.8142486,31.0149621 78.390301,28.7429167 78.390301,28.7429167 C78.5997603,28.5646591 78.9094822,28.5666288 79.1179489,28.7468561 Z" id="Fill-20" fill="#FFFFFF" mask="url(#mask-4)"></path>
                        <path d="M81.0050708,54.2500496 L74.9983097,57.453795 C74.3803085,57.7826595 74,58.3915956 74,59.0512764 L74,68.652754 L81.8079442,72.8167448 C82.7819565,73.3368776 83.9989436,72.6879314 83.9989436,71.6486414 L84,55.847531 C84,54.427656 82.3361504,53.5396242 81.0050708,54.2500496" id="Fill-6" fill="#FFFFFF" mask="url(#mask-4)"></path>
                        <path d="M78.4956095,28 C78.3964876,28.082495 78.2278782,28.219643 78,28.3887577 L91.7401341,46.4623828 L98.3465573,49.937485 C98.766548,50.1829076 99.2069763,49.651846 98.8942824,49.2775249 L78.4956095,28 Z" id="Fill-8" fill="#FFFFFF" mask="url(#mask-4)"></path>
                        <path d="M78,28.028 C78.012,28.018 78.024,28.01 78.036,28 C78.024,28.01 78.012,28.018 78,28.028" id="Fill-10" fill="#36357F" mask="url(#mask-4)"></path>
                        <path d="M78,28.026 C78.012,28.018 78.024,28.008 78.036,28 L78,28.026 Z" id="Fill-12" fill="#36357F" mask="url(#mask-4)"></path>
                        <path d="M99.9839587,45.456504 L90.1931941,37.3870149 L90.1901427,37.3840136 L78.7913167,28.0969981 C78.5817907,27.9569375 78.3000494,27.9679423 78.1027288,28.1340141 C78.1027288,28.1340141 78.0661126,28.1650275 78,28.2200513 L91.4523844,41.8959645 L99.350295,45.9387125 C99.716457,46.1468025 100.081602,45.7846459 99.9839587,45.456504" id="Fill-14" fill="#FFFFFF" mask="url(#mask-4)"></path>
                        <path d="M48,87.9699342 C48.7132586,88.1102617 49.4628679,87.7524267 49.7919886,87.0417684 L70,37 L48,87.9699342 Z" id="Fill-16" fill="#FFFFFF" mask="url(#mask-4)"></path>
                        <path d="M70.3660646,36.686353 L51,84.3412061 L51.7352822,84.7752175 C52.6142516,85.2885968 53.7389757,84.887739 54.1046349,83.9272879 L73,31 C72.8721679,31.0552561 72.7681186,31.154717 72.7126256,31.2853223 L70.3660646,36.686353 Z" id="Fill-18" fill="#FFFFFF" mask="url(#mask-4)"></path>
                        <path d="M72.034,31.012 C72.022,31.022 72.012,31.034 72,31.044 C72.018,31.028 72.034,31.012 72.054,31 C72.048,31.004 72.04,31.008 72.034,31.012" id="Fill-23" fill="#36357F" mask="url(#mask-4)"></path>
                        <path d="M94.9235614,51.5906344 L76.6548743,28 C76.6006914,28.0387612 76.5434983,28.0805039 76.4822916,28.1232406 C76.4712543,28.1311916 76.4612204,28.1381487 76.4501832,28.1460997 C76.3247597,28.2335608 76.1872955,28.3259912 76.0367873,28.4223972 C76.0207331,28.4333298 76.0056822,28.4422747 75.989628,28.4532073 C75.9234044,28.4949501 75.855174,28.5376868 75.7849369,28.5814173 C75.7728962,28.5883744 75.7618589,28.5953316 75.7498183,28.6032826 C75.6695472,28.6519825 75.5852626,28.7016763 75.4989713,28.7523639 C75.4819137,28.7623027 75.4638527,28.7722414 75.4457917,28.7821802 C75.3745511,28.8229291 75.3013038,28.8646719 75.2260497,28.9064147 C75.2039752,28.9183412 75.182904,28.9302677 75.1608295,28.9412003 C75.0695211,28.9908941 74.9762061,29.0415818 74.8788774,29.0902817 C74.8658334,29.0972388 74.8507825,29.1041959 74.8367351,29.1111531 C74.7534539,29.1538897 74.6681659,29.1956325 74.5808711,29.2373753 C74.5537797,29.2502957 74.5266882,29.2632161 74.4995967,29.2761364 C74.4002613,29.3228486 74.3009259,29.3685669 74.1975769,29.4132913 C74.1935633,29.415279 74.1895498,29.4162729 74.1865396,29.4182607 C74.0811839,29.463979 73.972818,29.5087034 73.8634487,29.5524339 C73.8604385,29.5534278 73.8584317,29.5554155 73.8554216,29.5564094 C73.753076,29.5971583 73.5835034,29.6597725 73.4801544,29.6975397 C73.4630968,29.7044969 73.4460392,29.7104601 73.4289816,29.7164234 C73.3155988,29.7561784 73.2012125,29.7939457 73.0848195,29.8307191 C73.0567246,29.839664 73.0276264,29.8486089 72.9985281,29.8565599 C72.9042096,29.8863761 72.806881,29.9132108 72.7105557,29.9400454 C72.6804541,29.9479964 72.6503525,29.9559474 72.6192474,29.9638984 C72.4988408,29.9957025 72.3764275,30.0255187 72.2530108,30.0523534 C72.2319396,30.0563289 72.2108685,30.0603044 72.1887939,30.0652738 C72.0834382,30.087139 71.977079,30.1080104 71.8697165,30.1259002 C71.8356013,30.1318634 71.8014861,30.1378267 71.7673709,30.14379 C71.6389373,30.1636675 71.5105036,30.1825511 71.3800631,30.1974592 L71.1141653,30.2521224 L71.1121585,30.2531163 C71.0559688,30.2640489 71.0057994,30.2869081 70.9576367,30.3137427 C70.9736909,30.3047978 70.9897452,30.2948591 71.0088095,30.2869081 L53,79.5712178 L53.3551994,79.7769501 C54.2983842,80.3156308 55.5014465,79.8355888 55.8024629,78.7989764 L67.853154,41.0883495 C68.4321089,39.2745263 70.5592917,38.4625298 72.2178922,39.4186383 L94.3586539,52.1909353 C94.7499752,52.4155512 95.1774186,51.9603561 94.9235614,51.5906344" id="Fill-25" fill="#FFFFFF" mask="url(#mask-4)"></path>
                    </g>
                    <path d="M238.189174,84.8238264 C237.649731,84.3851828 236.866597,84.0484462 235.841987,83.8158322 C234.817378,83.5832181 234.167166,83.3605732 233.890245,83.1456822 C233.614431,82.9330065 233.47597,82.6283928 233.47597,82.2318412 C233.47597,81.8363974 233.660954,81.527353 234.032028,81.3080312 C234.403103,81.0876016 234.877193,80.9779407 235.455405,80.9779407 C236.033617,80.9779407 236.520999,81.0654479 236.91755,81.24157 C237.312994,81.4176921 237.55447,81.6071064 237.643085,81.8064898 C238.132682,81.64366 238.378588,81.3855692 238.378588,81.0344327 C238.378588,80.6832963 238.129359,80.3775749 237.633116,80.1194841 C237.136872,79.862501 236.435707,79.7329017 235.531835,79.7329017 C234.625748,79.7329017 233.806061,79.9821311 233.070557,80.4783744 C232.335054,80.9746177 231.968409,81.6503061 231.968409,82.504332 C231.968409,83.1346053 232.204347,83.6574331 232.674005,84.0794614 C233.14588,84.5003821 233.900214,84.8238264 234.937008,85.0497943 C235.973802,85.2757623 236.671644,85.506161 237.029427,85.738775 C237.388317,85.9713891 237.566654,86.2915103 237.566654,86.7002464 C237.566654,87.1089826 237.369486,87.4512575 236.972935,87.7270713 C236.577491,88.0039928 236.001494,88.1424536 235.248268,88.1424536 C234.493933,88.1424536 233.865876,88.0239312 233.362986,87.784671 C232.858989,87.5454108 232.521145,87.2563048 232.345023,86.9173529 C231.930748,87.117844 231.722503,87.4379653 231.722503,87.8788243 C231.722503,88.3185756 232.039301,88.6741428 232.674005,88.9444182 C233.309817,89.2146936 234.157197,89.3487236 235.219468,89.3487236 C236.281739,89.3487236 237.177857,89.1006019 237.906714,88.6043586 C238.635571,88.1081153 239,87.4634421 239,86.6714466 C239,85.8794511 238.729725,85.2635777 238.189174,84.8238264 Z M223.538919,83.8811857 C224.445006,84.1835839 225.34334,84.3342292 226.236135,84.3342292 C227.869971,84.3342292 228.687444,83.805863 228.687444,82.7502383 C228.687444,82.2606411 228.475876,81.8452588 228.056063,81.5063069 C227.634034,81.1662473 227.055822,80.9967714 226.320319,80.9967714 C225.584815,80.9967714 224.94125,81.2925235 224.388514,81.8829202 C223.834671,82.4733168 223.552212,83.1390361 223.538919,83.8811857 Z M229.951313,86.9827064 C230.100851,87.1034441 230.177281,87.2751355 230.177281,87.5011034 C230.177281,87.9408547 229.852729,88.3617754 229.205841,88.7649731 C228.558952,89.1670631 227.737049,89.3686619 226.744562,89.3686619 C225.413124,89.3686619 224.296576,88.9654642 223.398243,88.1612842 C222.49991,87.3571042 222.050189,86.1696649 222.050189,84.5978585 C222.050189,83.0271598 222.489941,81.8264282 223.370551,80.9967714 C224.250054,80.1671146 225.261371,79.7528401 226.405611,79.7528401 C227.54985,79.7528401 228.45483,80.0452692 229.120549,80.6290197 C229.786268,81.2127702 230.119682,81.9394122 230.119682,82.8067303 C230.119682,83.6740484 229.777407,84.3497368 229.092857,84.8337956 C228.407199,85.3167467 227.524373,85.5593299 226.443272,85.5593299 C225.36217,85.5593299 224.388514,85.3898539 223.521196,85.0497943 C223.521196,85.968066 223.834671,86.7057849 224.462729,87.2651663 C225.091895,87.8256554 225.858414,88.1047922 226.764501,88.1047922 C228.171262,88.1047922 229.051872,87.6705793 229.403009,86.8032612 C229.616792,86.8032612 229.79956,86.864184 229.951313,86.9827064 Z M219.750633,86.8608609 C219.309774,87.6772255 218.461287,88.0848539 217.205171,88.0848539 C216.413175,88.0848539 215.734164,87.784671 215.169244,87.1809821 C214.603217,86.5772933 214.319649,85.7044368 214.319649,84.5601972 C214.319649,83.4159575 214.59657,82.5453164 215.149306,81.9482736 C215.702041,81.3512309 216.399883,81.0532634 217.242832,81.0532634 C217.846521,81.0532634 218.367133,81.1695704 218.807993,81.4021845 C219.246636,81.6347985 219.530204,81.8895663 219.65648,82.1664878 C220.195923,82.1033497 220.466198,81.8330743 220.466198,81.354554 C220.466198,80.9657562 220.180415,80.6002198 219.608849,80.2612679 C219.037284,79.9212083 218.37378,79.7528401 217.620553,79.7528401 C216.865111,79.7528401 216.224869,79.8403472 215.696503,80.0164693 C215.169244,80.1914837 214.675216,80.4617591 214.215526,80.8272954 C213.756945,81.1917241 213.392516,81.6979366 213.123348,82.3448252 C212.851965,82.9928215 212.717935,83.7338634 212.717935,84.5701663 C212.717935,85.4053615 212.84975,86.1386497 213.113379,86.7655999 C213.378116,87.3947655 213.735898,87.8943319 214.187834,88.264299 C214.640878,88.6353738 215.134906,88.9122953 215.66881,89.0939558 C216.201607,89.276724 216.85625,89.3686619 217.628307,89.3686619 C218.402579,89.3686619 219.090452,89.1881091 219.694141,88.8303266 C220.29783,88.472544 220.598013,88.073777 220.598013,87.632918 C220.598013,87.4069501 220.517152,87.2219665 220.353214,87.0768597 C220.190385,86.9328605 219.988786,86.8608609 219.750633,86.8608609 Z M208.965095,85.181609 C208.1731,84.8304725 207.394396,84.6543505 206.627878,84.6543505 C205.860251,84.6543505 205.269855,84.8171803 204.85558,85.1450553 C204.440198,85.4718227 204.233061,85.8960664 204.233061,86.4166788 C204.233061,86.9383989 204.412506,87.3537812 204.770288,87.6617179 C205.128071,87.9696546 205.656437,88.1236229 206.354279,88.1236229 C207.052121,88.1236229 207.661349,87.8721782 208.183069,87.3692888 C208.704789,86.867507 208.965095,86.2571721 208.965095,85.5404992 L208.965095,85.181609 Z M211.322251,88.5390051 C211.133944,89.0164178 210.7817,89.2545703 210.266626,89.2545703 C209.888905,89.2545703 209.590938,89.1205403 209.370508,88.8491572 C209.151186,88.5799895 209.041525,88.2244223 209.041525,87.784671 C208.24953,88.8402957 207.22492,89.3686619 205.967697,89.3686619 C204.949733,89.3686619 204.148876,89.107248 203.564018,88.585528 C202.97916,88.0638079 202.686731,87.3604273 202.686731,86.4731708 C202.686731,85.587022 203.030114,84.8681338 203.714664,84.3153986 C204.399213,83.7615556 205.326347,83.4857418 206.496063,83.4857418 C207.199444,83.4857418 207.790948,83.5599567 208.267253,83.7117097 C208.657158,83.8501704 208.89088,83.9376776 208.965095,83.975339 L208.965095,83.1456822 C208.965095,82.3791635 208.770142,81.8363974 208.381345,81.5151684 C207.991439,81.1950472 207.401042,81.0344327 206.607939,81.0344327 C205.489176,81.0344327 204.621858,81.4619995 204.007093,82.3160254 C203.478726,82.2407027 203.215097,81.9959041 203.215097,81.5805219 C203.215097,81.1042169 203.541865,80.6832963 204.195399,80.3188676 C204.848934,79.9544389 205.627637,79.770563 206.533724,79.770563 C209.197709,79.770563 210.530255,81.0100636 210.530255,83.4857418 L210.530255,87.2186435 C210.530255,87.9098395 210.794992,88.3506985 211.322251,88.5390051 Z M199.293889,84.5037052 C199.293889,83.3096197 199.041336,82.4389785 198.539555,81.8928893 C198.036665,81.3445848 197.357654,81.072094 196.50252,81.072094 C195.648494,81.072094 195.022652,81.4487073 194.627208,82.2041491 C194.230656,82.9573756 194.033488,83.9376776 194.033488,85.1450553 L194.033488,87.5011034 C194.158657,87.5897183 194.469916,87.7060253 194.96616,87.8500245 C195.463511,87.9940236 195.961969,88.0671309 196.464859,88.0671309 C197.307808,88.0671309 197.989035,87.7713788 198.511863,87.1809821 C199.032475,86.5905855 199.293889,85.6977906 199.293889,84.5037052 Z M199.773517,80.9303102 C200.496836,81.7156596 200.859049,82.9097451 200.859049,84.5136743 C200.859049,86.1153882 200.433698,87.326089 199.58521,88.1424536 C198.73783,88.9588181 197.696606,89.3686619 196.464859,89.3686619 C195.623018,89.3686619 194.812191,89.1537709 194.033488,88.7262041 L194.033488,92.7814424 C194.033488,93.2455628 193.794228,93.4770692 193.316815,93.4770692 L193.185001,93.4770692 C192.70648,93.4770692 192.468328,93.2455628 192.468328,92.7814424 L192.468328,80.6190505 C192.468328,80.1549301 192.70648,79.9212083 193.185001,79.9212083 L193.316815,79.9212083 C193.794228,79.9212083 194.033488,80.1416378 194.033488,80.5813892 L194.033488,81.3168926 C194.297117,80.8771413 194.692561,80.5071742 195.220928,80.2047759 C195.749294,79.9034853 196.32086,79.7528401 196.936733,79.7528401 C198.105342,79.7528401 199.051306,80.1449609 199.773517,80.9303102 Z M189.602744,84.8238264 C189.061086,84.3851828 188.27906,84.0484462 187.255558,83.8158322 C186.230948,83.5832181 185.579629,83.3605732 185.303815,83.1456822 C185.026894,82.9330065 184.888433,82.6283928 184.888433,82.2318412 C184.888433,81.8363974 185.074524,81.527353 185.445599,81.3080312 C185.815566,81.0876016 186.289656,80.9779407 186.868975,80.9779407 C187.44608,80.9779407 187.933462,81.0654479 188.328905,81.24157 C188.725457,81.4176921 188.966933,81.6071064 189.056655,81.8064898 C189.546252,81.64366 189.791051,81.3855692 189.791051,81.0344327 C189.791051,80.6832963 189.542929,80.3775749 189.046686,80.1194841 C188.550443,79.862501 187.849277,79.7329017 186.94319,79.7329017 C186.039319,79.7329017 185.219631,79.9821311 184.484127,80.4783744 C183.748624,80.9746177 183.380872,81.6503061 183.380872,82.504332 C183.380872,83.1346053 183.615702,83.6574331 184.087576,84.0794614 C184.55945,84.5003821 185.313784,84.8238264 186.349471,85.0497943 C187.387372,85.2757623 188.085215,85.506161 188.442997,85.738775 C188.80078,85.9713891 188.980225,86.2915103 188.980225,86.7002464 C188.980225,87.1089826 188.781949,87.4512575 188.386505,87.7270713 C187.991061,88.0039928 187.415065,88.1424536 186.66073,88.1424536 C185.907504,88.1424536 185.278338,88.0239312 184.775449,87.784671 C184.272559,87.5454108 183.933608,87.2563048 183.757485,86.9173529 C183.342103,87.117844 183.134966,87.4379653 183.134966,87.8788243 C183.134966,88.3185756 183.452872,88.6741428 184.087576,88.9444182 C184.721172,89.2146936 185.570767,89.3487236 186.633038,89.3487236 C187.695309,89.3487236 188.591427,89.1006019 189.320284,88.6043586 C190.048034,88.1081153 190.412463,87.4634421 190.412463,86.6714466 C190.412463,85.8794511 190.142187,85.2635777 189.602744,84.8238264 Z M169.560274,84.8138572 C169.987841,85.1727475 170.521746,85.3521926 171.163096,85.3521926 C171.803339,85.3521926 172.335028,85.1727475 172.757056,84.8138572 C173.177977,84.4560747 173.387329,83.9066624 173.387329,83.1645128 C173.387329,82.4234709 173.177977,81.872951 172.757056,81.5151684 C172.335028,81.1562782 171.803339,80.9779407 171.163096,80.9779407 C170.521746,80.9779407 169.987841,81.1562782 169.560274,81.5151684 C169.132708,81.872951 168.920032,82.4234709 168.920032,83.1645128 C168.920032,83.9066624 169.132708,84.4560747 169.560274,84.8138572 Z M175.838638,90.4242867 C175.838638,91.2916048 175.421041,91.9949854 174.584738,92.5355361 C173.748435,93.0760869 172.677303,93.371839 171.370233,93.4216849 L170.918297,93.4216849 C169.84938,93.4216849 168.937755,93.2067938 168.184528,92.7814424 C167.430194,92.3527679 167.052473,91.8509862 167.052473,91.2716664 C167.052473,90.9958526 167.118935,90.7754231 167.250749,90.6125933 C167.382564,90.4486558 167.555363,90.3545024 167.769146,90.3301334 C168.008406,90.8197305 168.428219,91.227359 169.031908,91.555234 C169.635597,91.8820014 170.345624,92.0459389 171.163096,92.0459389 L171.294911,92.0459389 C172.237551,92.0459389 172.976378,91.9008321 173.510283,91.611726 C174.045295,91.3215123 174.31114,90.9615144 174.31114,90.5273015 C174.31114,90.0941962 174.07631,89.7796134 173.604436,89.5846607 C173.133669,89.389708 172.322843,89.2922316 171.171958,89.2922316 C170.022179,89.2922316 169.158184,89.1792476 168.579972,88.9532797 C168.00176,88.7262041 167.712654,88.2875604 167.712654,87.632918 C167.712654,86.9793833 168.171236,86.4643093 169.0884,86.0876961 C167.996222,85.4718227 167.449025,84.4904129 167.449025,83.1456822 C167.449025,82.0778729 167.813454,81.2471084 168.542311,80.6567118 C169.271168,80.0663152 170.170609,79.770563 171.239526,79.770563 C171.778969,79.770563 172.278536,79.8846547 172.737118,80.1106226 C173.1957,80.3365906 173.545729,80.5813892 173.782773,80.8450184 C174.261294,80.5315433 174.500554,79.9588696 174.500554,79.1292129 C174.840613,79.1292129 175.140796,79.2333353 175.404426,79.4415803 C175.67027,79.6487176 175.800977,79.9090238 175.800977,80.2236066 C175.800977,80.8516645 175.335749,81.3047081 174.406401,81.5805219 C174.682214,81.9582428 174.820675,82.5109781 174.820675,83.2398355 C174.820675,84.3087524 174.472862,85.1229016 173.77502,85.6811753 C173.077177,86.2416644 172.206536,86.5208013 171.163096,86.5208013 L170.314609,86.48314 C170.013318,86.48314 169.755227,86.5617857 169.541444,86.7190771 C169.32766,86.8763685 169.220215,87.0491675 169.220215,87.2374741 C169.220215,87.7148868 169.623413,87.954147 170.427593,87.954147 L171.823277,87.954147 C174.500554,87.954147 175.838638,88.7771576 175.838638,90.4242867 Z M161.77435,79.7528401 C161.107523,79.7528401 160.517126,79.9345006 160.000945,80.2989292 C159.485871,80.6633579 159.10815,81.0842786 158.871105,81.5627989 L158.871105,80.6389888 C158.871105,80.1604685 158.631845,79.9212083 158.153324,79.9212083 L158.02151,79.9212083 C157.542989,79.9212083 157.304837,80.1604685 157.304837,80.6389888 L157.304837,88.5002361 C157.304837,88.7527885 157.361329,88.934449 157.475421,89.047433 C157.587297,89.160417 157.768957,89.216909 158.02151,89.216909 L158.153324,89.216909 C158.642922,89.216909 158.888828,88.9787565 158.888828,88.5002361 L158.888828,84.3718905 C158.888828,83.3782962 159.121442,82.5807623 159.58667,81.9770735 C160.051898,81.3744923 160.654479,81.072094 161.396629,81.072094 C162.138778,81.072094 162.703698,81.2670468 163.093604,81.6569522 C163.483509,82.04575 163.677354,82.7003924 163.677354,83.6175564 L163.677354,88.5002361 C163.677354,88.9787565 163.909968,89.216909 164.375196,89.216909 L164.526949,89.216909 C164.778394,89.216909 164.960055,89.160417 165.073039,89.047433 C165.186023,88.934449 165.243622,88.7527885 165.243622,88.5002361 L165.243622,83.5599567 C165.243622,82.2407027 164.920178,81.2770159 164.272182,80.666681 C163.625293,80.056346 162.792313,79.7528401 161.77435,79.7528401 Z M153.515443,79.9212083 L153.402459,79.9212083 C152.923939,79.9212083 152.686894,80.1549301 152.686894,80.6190505 L152.686894,88.5002361 C152.686894,88.9787565 152.923939,89.216909 153.402459,89.216909 L153.515443,89.216909 C153.992856,89.216909 154.232116,88.9787565 154.232116,88.5002361 L154.232116,80.6190505 C154.232116,80.1549301 153.992856,79.9212083 153.515443,79.9212083 Z M153.448982,76.208245 C153.166522,76.208245 152.923939,76.3112598 152.723448,76.518397 C152.521849,76.7255343 152.422157,76.9747637 152.422157,77.2638697 C152.422157,77.5529757 152.521849,77.7977743 152.723448,77.9993732 C152.923939,78.200972 153.169845,78.3006638 153.458951,78.3006638 C153.748057,78.3006638 153.992856,78.197649 154.194455,77.989404 C154.396054,77.7822667 154.495745,77.5374681 154.495745,77.2539005 C154.495745,76.9714406 154.39273,76.7255343 154.184486,76.518397 C153.978456,76.3112598 153.73255,76.208245 153.448982,76.208245 Z M146.3321,79.7528401 C145.66638,79.7528401 145.074876,79.9345006 144.56091,80.2989292 C144.044728,80.6633579 143.667007,81.0842786 143.428855,81.5627989 L143.428855,80.6389888 C143.428855,80.1604685 143.189595,79.9212083 142.712182,79.9212083 L142.580367,79.9212083 C142.102955,79.9212083 141.863695,80.1604685 141.863695,80.6389888 L141.863695,88.5002361 C141.863695,88.7527885 141.920187,88.934449 142.03317,89.047433 C142.147262,89.160417 142.328923,89.216909 142.580367,89.216909 L142.712182,89.216909 C143.202887,89.216909 143.447685,88.9787565 143.447685,88.5002361 L143.447685,84.3718905 C143.447685,83.3782962 143.6803,82.5807623 144.145528,81.9770735 C144.610756,81.3744923 145.213337,81.072094 145.954379,81.072094 C146.696528,81.072094 147.262556,81.2670468 147.652461,81.6569522 C148.041259,82.04575 148.236212,82.7003924 148.236212,83.6175564 L148.236212,88.5002361 C148.236212,88.9787565 148.468826,89.216909 148.934054,89.216909 L149.085807,89.216909 C149.336144,89.216909 149.518912,89.160417 149.631896,89.047433 C149.74488,88.934449 149.801372,88.7527885 149.801372,88.5002361 L149.801372,83.5599567 C149.801372,82.2407027 149.477928,81.2770159 148.829932,80.666681 C148.183043,80.056346 147.350063,79.7528401 146.3321,79.7528401 Z M139.535339,80.1106226 C139.252879,79.8968392 138.84082,79.7893937 138.300269,79.7893937 C137.759718,79.7893937 137.253506,79.978808 136.782739,80.3554212 C136.310865,80.7331421 135.96859,81.1596012 135.754806,81.6370139 L135.754806,80.6190505 C135.754806,80.1549301 135.516654,79.9212083 135.039241,79.9212083 L134.92515,79.9212083 C134.447737,79.9212083 134.209584,80.1549301 134.209584,80.6190505 L134.209584,88.5002361 C134.209584,88.7527885 134.266076,88.934449 134.377953,89.047433 C134.492044,89.160417 134.673705,89.216909 134.92515,89.216909 L135.075795,89.216909 C135.328347,89.216909 135.510008,89.160417 135.622992,89.047433 C135.737083,88.934449 135.793575,88.7527885 135.793575,88.5002361 L135.793575,84.4660438 C135.793575,83.5101109 136.019543,82.7159 136.471479,82.0800883 C136.924523,81.4464919 137.540396,81.128586 138.319099,81.128586 C138.758851,81.128586 139.173125,81.2925235 139.564138,81.6181832 C139.827768,81.4431688 139.959582,81.2005856 139.959582,80.8926489 C139.959582,80.5847122 139.817799,80.324406 139.535339,80.1106226 Z M129.872994,85.181609 C129.080998,84.8304725 128.301188,84.6543505 127.534669,84.6543505 C126.76815,84.6543505 126.176646,84.8171803 125.762371,85.1450553 C125.346989,85.4718227 125.139852,85.8960664 125.139852,86.4166788 C125.139852,86.9383989 125.319297,87.3537812 125.677079,87.6617179 C126.03597,87.9696546 126.564336,88.1236229 127.26107,88.1236229 C127.958913,88.1236229 128.569248,87.8721782 129.08986,87.3692888 C129.61158,86.867507 129.872994,86.2571721 129.872994,85.5404992 L129.872994,85.181609 Z M132.23015,88.5390051 C132.040735,89.0164178 131.689599,89.2545703 131.173417,89.2545703 C130.796804,89.2545703 130.497729,89.1205403 130.278407,88.8491572 C130.057977,88.5799895 129.948317,88.2244223 129.948317,87.784671 C129.156321,88.8402957 128.131712,89.3686619 126.874488,89.3686619 C125.856525,89.3686619 125.055668,89.107248 124.470809,88.585528 C123.887059,88.0638079 123.59463,87.3604273 123.59463,86.4731708 C123.59463,85.587022 123.935797,84.8681338 124.621455,84.3153986 C125.307112,83.7615556 126.234246,83.4857418 127.402854,83.4857418 C128.106235,83.4857418 128.697739,83.5599567 129.175152,83.7117097 C129.565057,83.8501704 129.797671,83.9376776 129.872994,83.975339 L129.872994,83.1456822 C129.872994,82.3791635 129.678041,81.8363974 129.288136,81.5151684 C128.89823,81.1950472 128.307834,81.0344327 127.515838,81.0344327 C126.397075,81.0344327 125.529757,81.4619995 124.913884,82.3160254 C124.386625,82.2407027 124.121888,81.9959041 124.121888,81.5805219 C124.121888,81.1042169 124.448656,80.6832963 125.10219,80.3188676 C125.756833,79.9544389 126.535536,79.770563 127.440516,79.770563 C130.105608,79.770563 131.437047,81.0100636 131.437047,83.4857418 L131.437047,87.2186435 C131.437047,87.9098395 131.701783,88.3506985 132.23015,88.5390051 Z M115.335723,83.8811857 C116.240703,84.1835839 117.140144,84.3342292 118.031831,84.3342292 C119.666775,84.3342292 120.48314,83.805863 120.48314,82.7502383 C120.48314,82.2606411 120.27268,81.8452588 119.851759,81.5063069 C119.430838,81.1662473 118.852626,80.9967714 118.117123,80.9967714 C117.381619,80.9967714 116.736946,81.2925235 116.184211,81.8829202 C115.631475,82.4733168 115.349016,83.1390361 115.335723,83.8811857 Z M121.74701,86.9827064 C121.897655,87.1034441 121.972978,87.2751355 121.972978,87.5011034 C121.972978,87.9408547 121.649533,88.3617754 121.001537,88.7649731 C120.354648,89.1670631 119.533853,89.3686619 118.541366,89.3686619 C117.20882,89.3686619 116.093381,88.9654642 115.195047,88.1612842 C114.295606,87.3571042 113.846993,86.1696649 113.846993,84.5978585 C113.846993,83.0271598 114.286745,81.8264282 115.166247,80.9967714 C116.04575,80.1671146 117.058175,79.7528401 118.202415,79.7528401 C119.345547,79.7528401 120.250526,80.0452692 120.917353,80.6290197 C121.583072,81.2127702 121.916486,81.9394122 121.916486,82.8067303 C121.916486,83.6740484 121.573103,84.3497368 120.888553,84.8337956 C120.202895,85.3167467 119.321177,85.5593299 118.238968,85.5593299 C117.157867,85.5593299 116.184211,85.3898539 115.316893,85.0497943 C115.316893,85.968066 115.631475,86.7057849 116.259533,87.2651663 C116.888699,87.8256554 117.655218,88.1047922 118.560197,88.1047922 C119.966958,88.1047922 120.847569,87.6705793 121.199813,86.8032612 C121.413596,86.8032612 121.595257,86.864184 121.74701,86.9827064 Z M111.56516,76.6978422 L111.56516,88.5002361 C111.56516,88.9787565 111.327008,89.216909 110.848487,89.216909 L110.716673,89.216909 C110.453044,89.216909 110.266952,89.160417 110.160614,89.047433 C110.053169,88.934449 110,88.7527885 110,88.5002361 L110,76.6978422 C110,76.4475051 110.053169,76.2669523 110.160614,76.1606145 C110.266952,76.0531689 110.453044,76 110.716673,76 L110.848487,76 C111.327008,76 111.56516,76.2326141 111.56516,76.6978422 Z" id="Fill-4" fill="#FFFFFF"></path>
                </g>
            </g>
        </g>
    </g>
</svg>