<?xml version="1.0" encoding="UTF-8"?>
<svg width="45px" height="44px" viewBox="0 0 45 44" version="1.1" xmlns="http://www.w3.org/2000/svg" xmlns:xlink="http://www.w3.org/1999/xlink">
    <!-- Generator: Sketch 51.2 (57519) - http://www.bohemiancoding.com/sketch -->
    <title>happy</title>
    <desc>Created with Sketch.</desc>
    <defs></defs>
    <g id="happy" stroke="none" stroke-width="1" fill="none" fill-rule="evenodd">
        <path d="M22.4999992,5 C13.3873183,5 6,12.3873566 6,21.5000184 C6,30.6126994 13.3873183,38.0000177 22.4999992,38.0000177 C31.6126802,38.0000177 39,30.6126994 39,21.5000184 C39,12.3873566 31.6126802,5 22.4999992,5 Z M16,16 C17.1045714,16 18,16.8954254 18,17.9999929 C18,19.1045603 17.1045714,20 16,20 C14.8954,20 14,19.1045603 14,17.9999929 C14,16.8954254 14.8954,16 16,16 Z M29,16 C30.1046,16 31,16.8954254 31,17.9999929 C31,19.1045603 30.1046,20 29,20 C27.8954286,20 27,19.1045603 27,17.9999929 C27,16.8954254 27.8954286,16 29,16 Z M22.6828803,31.9334165 C19.8486323,31.9334165 17.3291384,30.3116968 15.7999069,27.7964446 C15.6054857,27.4762295 15.6599249,26.9620818 15.9141469,26.7171911 C16.1683689,26.4723004 16.5765559,26.5408714 16.7709771,26.8610865 C18.0606702,28.9826794 20.2183434,30.3985328 22.6828803,30.3985328 C25.1474172,30.3985328 27.3051208,28.9826794 28.5947834,26.8610865 C28.7892046,26.5408714 29.1973917,26.4723004 29.4516137,26.7171911 C29.7058357,26.9620818 29.7602748,27.4762295 29.5658536,27.7964446 C28.0366222,30.3116968 25.5171282,31.9334165 22.6828803,31.9334165 Z" fill="#FCBB4F" fill-rule="nonzero"></path>
    </g>
</svg>