<?xml version="1.0" encoding="UTF-8"?>
<svg width="45px" height="44px" viewBox="0 0 45 44" version="1.1" xmlns="http://www.w3.org/2000/svg" xmlns:xlink="http://www.w3.org/1999/xlink">
    <!-- Generator: Sketch 51.2 (57519) - http://www.bohemiancoding.com/sketch -->
    <title>angry</title>
    <desc>Created with Sketch.</desc>
    <defs></defs>
    <g id="angry" stroke="none" stroke-width="1" fill="none" fill-rule="evenodd">
        <path d="M22.4999992,5 C13.3873183,5 6,12.3873566 6,21.5000184 C6,30.6126994 13.3873183,38.0000177 22.4999992,38.0000177 C31.6126802,38.0000177 39,30.6126994 39,21.5000184 C39,12.3873566 31.6126802,5 22.4999992,5 Z M13.1707846,12.3386624 L19.3103191,14.6409879 C19.708468,14.762167 19.950711,15.2487251 19.8074296,15.6394681 C19.6641482,16.0302111 19.1648122,16.2448646 18.7827029,16.0799413 L12.6431683,13.7776159 C12.3055323,13.6749705 12.0665125,13.3148485 12.1030044,12.9638973 C12.2710358,12.3680171 12.6426311,12.202288 13.1707846,12.3386624 Z M32.8817987,12.9188101 C32.9424267,13.2796612 32.7056325,13.6670275 32.3568302,13.7776159 L26.2172956,16.0799413 C25.8351863,16.2448646 25.3358503,16.0302111 25.1925689,15.6394681 C25.0492875,15.2487251 25.2915305,14.762167 25.6896793,14.6409879 L31.8292139,12.3386624 C32.3191871,12.167638 32.7358313,12.4040101 32.8817987,12.9188101 Z M16,16 C17.1045714,16 18,16.8954254 18,17.9999929 C18,19.1045603 17.1045714,20 16,20 C14.8954,20 14,19.1045603 14,17.9999929 C14,16.8954254 14.8954,16 16,16 Z M29,16 C30.1046,16 31,16.8954254 31,17.9999929 C31,19.1045603 30.1046,20 29,20 C27.8954286,20 27,19.1045603 27,17.9999929 C27,16.8954254 27.8954286,16 29,16 Z M22.6828803,24.5697857 C25.5171282,24.5697857 28.0366222,26.1915054 29.5658536,28.7067576 C29.7602748,29.0269727 29.7058357,29.5411204 29.4516137,29.7860111 C29.1973917,30.0309017 28.7892046,29.9623308 28.5947834,29.6421157 C27.3051208,27.5205228 25.1474172,26.1046694 22.6828803,26.1046694 C20.2183434,26.1046694 18.0606702,27.5205228 16.7709771,29.6421157 C16.5765559,29.9623308 16.1683689,30.0309017 15.9141469,29.7860111 C15.6599249,29.5411204 15.6054857,29.0269727 15.7999069,28.7067576 C17.3291384,26.1915054 19.8486323,24.5697857 22.6828803,24.5697857 Z" id="angry-face" fill="#E34F44" fill-rule="nonzero"></path>
    </g>
</svg>