<?xml version="1.0" encoding="UTF-8"?>
<svg width="45px" height="44px" viewBox="0 0 45 44" version="1.1" xmlns="http://www.w3.org/2000/svg" xmlns:xlink="http://www.w3.org/1999/xlink">
    <!-- Generator: Sketch 51.2 (57519) - http://www.bohemiancoding.com/sketch -->
    <title>sad</title>
    <desc>Created with Sketch.</desc>
    <defs></defs>
    <g id="sad" stroke="none" stroke-width="1" fill="none" fill-rule="evenodd">
        <path d="M22.4999992,5 C13.3873183,5 6,12.3873566 6,21.5000184 C6,30.6126994 13.3873183,38.0000177 22.4999992,38.0000177 C31.6126802,38.0000177 39,30.6126994 39,21.5000184 C39,12.3873566 31.6126802,5 22.4999992,5 Z M16,16 C17.1045714,16 18,16.8954254 18,17.9999929 C18,19.1045603 17.1045714,20 16,20 C14.8954,20 14,19.1045603 14,17.9999929 C14,16.8954254 14.8954,16 16,16 Z M29,16 C30.1046,16 31,16.8954254 31,17.9999929 C31,19.1045603 30.1046,20 29,20 C27.8954286,20 27,19.1045603 27,17.9999929 C27,16.8954254 27.8954286,16 29,16 Z M22.6828803,26.5697857 C25.5171282,26.5697857 28.0366222,28.1915054 29.5658536,30.7067576 C29.7602748,31.0269727 29.7058357,31.5411204 29.4516137,31.7860111 C29.1973917,32.0309017 28.7892046,31.9623308 28.5947834,31.6421157 C27.3051208,29.5205228 25.1474172,28.1046694 22.6828803,28.1046694 C20.2183434,28.1046694 18.0606702,29.5205228 16.7709771,31.6421157 C16.5765559,31.9623308 16.1683689,32.0309017 15.9141469,31.7860111 C15.6599249,31.5411204 15.6054857,31.0269727 15.7999069,30.7067576 C17.3291384,28.1915054 19.8486323,26.5697857 22.6828803,26.5697857 Z" fill="#3DB1E5" fill-rule="nonzero"></path>
    </g>
</svg>