<?xml version="1.0" encoding="UTF-8"?>
<svg width="40px" height="29px" viewBox="0 0 40 29" version="1.1" xmlns="http://www.w3.org/2000/svg" xmlns:xlink="http://www.w3.org/1999/xlink">
    <!-- Generator: Sketch 51.2 (57519) - http://www.bohemiancoding.com/sketch -->
    <title>arrow</title>
    <desc>Created with Sketch.</desc>
    <defs></defs>
    <g id="Wireframes" stroke="none" stroke-width="1" fill="none" fill-rule="evenodd">
        <g id="child-notes" transform="translate(-19.000000, -45.000000)" fill="#FFFFFF" fill-rule="nonzero">
            <g id="back-arrow" transform="translate(19.000000, 45.000000)">
                <path d="M39.185026,16.0670165 C39.7128571,15.5622884 39.9729347,14.9458081 39.9652588,14.2175758 C39.9729347,13.4893434 39.7128571,12.8632307 39.185026,12.3392375 C38.6802978,11.8306714 38.0638176,11.5705938 37.3355852,11.5590047 L9.01602367,11.5590047 L16.0670165,4.50801184 C16.5948477,4.00328368 16.8549253,3.38680343 16.8472494,2.65857108 C16.8549253,1.93033874 16.5948477,1.30422598 16.0670165,0.780232818 C15.5622884,0.271666712 14.9458081,0.0115891063 14.2175758,0 C13.4892682,0.0115138523 12.8631554,0.271591458 12.3392375,0.780232818 L0.780232818,12.3392375 C0.271666712,12.8632307 0.0115891063,13.4893434 0,14.2175758 C0.0115891063,14.9458081 0.271666712,15.5622884 0.780232818,16.0670165 C0.792022601,16.0788565 4.64502417,19.9318581 12.3392375,27.6260213 C12.8631554,28.1538524 13.4892682,28.41393 14.2175758,28.4062541 C14.9458081,28.41393 15.5622884,28.1538524 16.0670165,27.6260213 C16.5948477,27.1212931 16.8549253,26.5048129 16.8472494,25.7765805 C16.8549253,25.0482729 16.5948477,24.4221601 16.0670165,23.8982422 L9.01602367,16.8472494 L37.3355852,16.8472494 C38.0638176,16.8549253 38.6802978,16.5948477 39.185026,16.0670165 Z" id="arrow"></path>
            </g>
        </g>
    </g>
</svg>