<?xml version="1.0" encoding="UTF-8"?>
<svg width="31px" height="31px" viewBox="0 0 31 31" version="1.1" xmlns="http://www.w3.org/2000/svg" xmlns:xlink="http://www.w3.org/1999/xlink">
    <!-- Generator: Sketch 51.2 (57519) - http://www.bohemiancoding.com/sketch -->
    <title>purple phone</title>
    <desc>Created with Sketch.</desc>
    <defs></defs>
    <g id="Wireframes" stroke="none" stroke-width="1" fill="none" fill-rule="evenodd">
        <g id="Provider-Profile" transform="translate(-253.000000, -344.000000)" fill="#36357F">
            <path d="M273.500266,356.312212 C273.200431,356.112401 272.900595,355.812685 272.700705,355.612875 L272.60076,355.612875 L272.60076,355.512969 C270.901694,353.914485 270.102134,351.516758 270.801749,349.218937 C272.101035,344.223673 278.197684,342.125662 282.095541,346.021968 C282.495321,346.421589 282.995047,347.02102 283.194937,347.520547 C286.393179,353.614769 279.297079,362.406434 275.299277,366.30274 C271.40142,370.298951 262.606254,377.392226 256.709496,374.195257 C256.00988,373.995447 255.41021,373.49592 255.01043,373.096299 C253.311364,371.298004 252.611748,369.100088 253.211419,366.702361 C254.610649,361.807002 260.807243,359.708991 264.50521,363.605297 L264.605155,363.605297 L264.605155,363.705203 C264.805046,363.905013 265.104881,364.104824 265.304771,364.504445 C268.702903,362.306529 271.301474,359.708991 273.500266,356.312212 Z" id="purple-phone"></path>
        </g>
    </g>
</svg>