<?xml version="1.0" encoding="UTF-8"?>
<svg width="39px" height="35px" viewBox="0 0 39 35" version="1.1" xmlns="http://www.w3.org/2000/svg" xmlns:xlink="http://www.w3.org/1999/xlink">
    <!-- Generator: Sketch 51.2 (57519) - http://www.bohemiancoding.com/sketch -->
    <title>purple logo/book</title>
    <desc>Created with Sketch.</desc>
    <defs>
        <polygon id="path-1" points="0 0.101691758 25.7065868 0.101691758 25.7065868 30.5602418 0 30.5602418"></polygon>
        <polygon id="path-3" points="0.0882535927 0.0175039427 22.3257001 0.0175039427 22.3257001 24.9569342 0.0882535927 24.9569342"></polygon>
    </defs>
    <g id="Wireframes" stroke="none" stroke-width="1" fill="none" fill-rule="evenodd">
        <g id="curriculum" transform="translate(-296.000000, -18.000000)">
            <g id="Tab-Bar-Copy-4">
                <g id="purple-logo/book" transform="translate(315.655985, 35.508671) rotate(-1.000000) translate(-315.655985, -35.508671) translate(296.155985, 18.008671)">
                    <g id="pages">
                        <g id="Group-3" transform="translate(0.000000, 2.441439)">
                            <mask id="mask-2" fill="white">
                                <use xlink:href="#path-1"></use>
                            </mask>
                            <g id="Clip-2"></g>
                            <path d="M10.8017708,0.172806351 C10.5296621,0.017337101 10.181757,0.126127932 10.0475975,0.408080641 L0.0614329138,21.4144985 C-0.0822011043,21.7167789 0.0337672586,22.0849361 0.325204092,22.252075 L14.7625073,30.4727469 C14.9224375,30.564598 15.1073806,30.5849257 15.283228,30.5299656 C15.4590755,30.4757584 15.5992986,30.3541686 15.6781268,30.1885355 L25.6548169,9.20169248 C25.774954,8.94985488 25.6794507,8.64870379 25.4361445,8.51017429 L10.8017708,0.172806351 Z" id="Fill-1" fill="#36357F" mask="url(#mask-2)"></path>
                        </g>
                        <path d="M28.3369742,8.73797314 C28.5220526,8.65996511 28.5342138,8.40456382 28.3593964,8.30592867 L14.1288854,0.252349696 C13.6181148,-0.0364300285 12.9990334,-0.0829348153 12.4559596,0.141713308 C12.3130654,0.200969408 12.167511,0.272601781 12.0204364,0.35623539 C11.6799226,0.550505386 11.3432092,0.803281405 11.0213173,1.1044374 C10.7583312,1.3512128 10.8058359,1.77800674 11.1208872,1.95615007 L25.7523379,10.2377525 C25.9700995,10.3611402 26.2452468,10.3195109 26.4158837,10.1376172 C26.8673685,9.65644268 27.3583772,9.26002688 27.8600269,8.97424746 C28.0196427,8.88348812 28.1788785,8.80435497 28.3369742,8.73797314 Z" id="Fill-4" fill="#36357F"></path>
                        <g id="Group-22" transform="translate(15.733719, 9.223215)">
                            <mask id="mask-4" fill="white">
                                <use xlink:href="#path-3"></use>
                            </mask>
                            <g id="Clip-21"></g>
                            <path d="M14.1648982,1.43861601 L18.3903919,4.93447748 L22.1806074,8.1047644 C22.2787249,8.1614847 22.3772213,8.03140614 22.2957724,7.95237584 L13.8546347,0.131780176 C13.8546347,0.131780176 13.2746427,-0.261102471 12.2896791,0.410087806 C12.2506594,0.435422876 12.2116397,0.460757945 12.17262,0.487227421 C11.6790017,0.824524169 11.213417,1.26580814 10.7955652,1.79292884 C10.7927871,1.801752 7.2236832,9.35626642 0.0882535927,24.4564721 L0.805003999,24.869774 C1.13496679,25.0599761 1.55736463,24.9280069 1.71988361,24.5842818 L11.4236688,2.58928193 C11.4505659,2.52726773 11.5062542,2.48264775 11.5725499,2.46903488 L11.6736981,2.4478593 C12.9041448,2.30946176 13.8872142,1.43710346 13.8872142,1.43710346 C13.9671478,1.36866096 14.0853434,1.36941723 14.1648982,1.43861601 Z" id="Fill-20" fill="#36357F" mask="url(#mask-4)"></path>
                        </g>
                        <path d="M30.4112701,20.7129896 L28.2929718,21.9480027 C28.0750322,22.0747768 27.9409155,22.3095158 27.9409155,22.5638164 L27.9409155,26.2650939 L30.6944053,27.8702724 C31.0378929,28.0707786 31.4670663,27.820616 31.4670663,27.4199797 L31.4674388,21.3288033 C31.4674388,20.7814551 30.8806784,20.4391274 30.4112701,20.7129896" id="Fill-6" fill="#36357F"></path>
                        <path d="M29.7542031,10.850841 C29.7170708,10.8813571 29.6539076,10.9320902 29.5685417,10.9946483 L34.7157658,17.6803539 L37.1906137,18.9658465 C37.3479474,19.056632 37.5129372,18.8601843 37.3957983,18.7217173 L29.7542031,10.850841 Z" id="Fill-8" fill="#36357F"></path>
                        <path d="M29.5685417,10.8642758 C29.5742994,10.8594776 29.5800572,10.8556391 29.585815,10.850841 C29.5800572,10.8556391 29.5742994,10.8594776 29.5685417,10.8642758" id="Fill-10" fill="#36357F"></path>
                        <path d="M29.5685417,10.8633162 C29.5742994,10.8594776 29.5800572,10.8546795 29.585815,10.850841 L29.5685417,10.8633162 Z" id="Fill-12" fill="#36357F"></path>
                        <path d="M37.7007385,17.4278462 L34.0789875,14.3875426 L34.0778587,14.3864118 L29.8612616,10.8873865 C29.7837548,10.8346165 29.6795344,10.8387627 29.6065426,10.9013328 C29.6065426,10.9013328 29.5929977,10.9130176 29.5685417,10.9337487 L34.5447809,16.0863584 L37.4663368,17.6095256 C37.6017856,17.6879267 37.7368582,17.5514786 37.7007385,17.4278462" id="Fill-14" fill="#36357F"></path>
                        <path d="M17.9038876,33.3549816 C18.1765275,33.4079765 18.4630623,33.2728395 18.5888672,33.0044581 L26.3132894,14.1060933 L17.9038876,33.3549816 Z" id="Fill-16" fill="#36357F"></path>
                        <path d="M26.3915634,14.0783456 L18.9889717,32.0330412 L19.27003,32.1965617 C19.6060122,32.3899852 20.0359329,32.2389559 20.1757045,31.8770912 L27.3983735,11.9359251 C27.3495102,11.9567436 27.3097378,11.9942171 27.2885259,12.0434246 L26.3915634,14.0783456 Z" id="Fill-18" fill="#36357F"></path>
                        <path d="M27.4146872,11.9416829 C27.4089294,11.946481 27.4041312,11.9522388 27.3983735,11.9570369 C27.4070101,11.9493599 27.4146872,11.9416829 27.4242835,11.9359251 C27.4214046,11.9378443 27.4175661,11.9397636 27.4146872,11.9416829" id="Fill-23" fill="#36357F"></path>
                        <path d="M36.3211887,19.834692 L29.3595182,10.850841 C29.3388706,10.8656021 29.317076,10.8814987 29.2937519,10.8977738 C29.2895459,10.9008017 29.2857223,10.9034512 29.2815163,10.9064791 C29.233721,10.9397862 29.1813374,10.9749859 29.123983,11.0116994 C29.1178652,11.0158628 29.1121298,11.0192693 29.106012,11.0234327 C29.0807761,11.0393293 29.0547754,11.0556043 29.0280101,11.0722579 C29.0234217,11.0749074 29.0192158,11.0775568 29.0146274,11.0805847 C28.9840384,11.0991308 28.95192,11.1180553 28.9190368,11.1373583 C28.9125367,11.1411432 28.9056541,11.1449281 28.8987716,11.148713 C28.8716239,11.1642311 28.8437115,11.1801277 28.8150343,11.1960243 C28.8066223,11.2005662 28.7985927,11.2051081 28.7901807,11.2092715 C28.7553858,11.228196 28.7198261,11.247499 28.6827369,11.2660451 C28.6777662,11.2686945 28.6720308,11.2713439 28.6666777,11.2739934 C28.6349416,11.2902685 28.6024408,11.3061651 28.5691753,11.3220617 C28.5588515,11.3269821 28.5485278,11.3319024 28.538204,11.3368228 C28.5003501,11.3546119 28.4624962,11.3720224 28.4231129,11.3890545 C28.4215835,11.3898115 28.420054,11.39019 28.4189069,11.390947 C28.3787589,11.4083575 28.3374638,11.4253896 28.2957863,11.4420432 C28.2946392,11.4424217 28.2938745,11.4431786 28.2927274,11.4435571 C28.2537264,11.4590752 28.1891072,11.4829202 28.1497239,11.4973028 C28.1432237,11.4999522 28.1367235,11.5022232 28.1302234,11.5044941 C28.0870164,11.5196337 28.0434271,11.5340164 27.9990731,11.5480205 C27.988367,11.5514269 27.9772785,11.5548334 27.96619,11.5578613 C27.9302479,11.569216 27.8931588,11.5794352 27.856452,11.5896545 C27.8449811,11.5926824 27.8335102,11.5957103 27.821657,11.5987383 C27.7757735,11.6108499 27.7291253,11.6222047 27.6820948,11.6324239 C27.6740652,11.6339379 27.6660355,11.6354518 27.6576236,11.6373443 C27.6174755,11.6456711 27.5769451,11.6536194 27.5360324,11.6604322 C27.523032,11.6627031 27.5100317,11.6649741 27.4970314,11.667245 C27.448089,11.6748148 27.3991467,11.6820062 27.3494396,11.6876835 L27.2481135,11.7085005 L27.2473488,11.708879 C27.2259365,11.7130424 27.2068184,11.7217477 27.188465,11.7319669 C27.1945828,11.7285605 27.2007006,11.7247756 27.2079655,11.7217477 L20.3453268,30.4903357 L20.4806831,30.5686833 C20.8401037,30.7738251 21.2985561,30.5910142 21.4132648,30.1962486 L26.0054361,15.8351827 C26.2260591,15.1444375 27.0366672,14.8352107 27.6687121,15.1993186 L36.1059187,20.0633003 C36.25504,20.1488392 36.4179264,19.9754905 36.3211887,19.834692" id="Fill-25" fill="#36357F"></path>
                    </g>
                </g>
            </g>
        </g>
    </g>
</svg>