<?xml version="1.0" encoding="UTF-8"?>
<svg width="19px" height="28px" viewBox="0 0 19 28" version="1.1" xmlns="http://www.w3.org/2000/svg" xmlns:xlink="http://www.w3.org/1999/xlink">
    <!-- Generator: Sketch 51.2 (57519) - http://www.bohemiancoding.com/sketch -->
    <title>paper clip</title>
    <desc>Created with Sketch.</desc>
    <defs></defs>
    <g id="Wireframes" stroke="none" stroke-width="1" fill="none" fill-rule="evenodd">
        <g id="post" transform="translate(-328.000000, -723.000000)" fill="#5F59A5">
            <g id="comment-box" transform="translate(20.000000, 715.000000)">
                <path d="M324.28576,17.8 L324.28576,26.2 C324.28576,30.0582677 321.240195,33.2 317.500027,33.2 C313.759859,33.2 310.714293,30.0582677 310.714293,26.2 L310.714293,15 C310.714293,12.6850394 312.541633,10.8 314.785733,10.8 C317.029834,10.8 318.857173,12.6850394 318.857173,15 L318.857173,26.2 C318.857173,26.9716535 318.24806,27.6 317.500027,27.6 C316.751993,27.6 316.14288,26.9716535 316.14288,26.2 L316.14288,17.8 C316.14288,17.0283465 315.533767,16.4 314.785733,16.4 C314.0377,16.4 313.428533,17.0283465 313.428533,17.8 L313.428533,26.2 C313.428533,28.5149606 315.255926,30.4 317.500027,30.4 C319.744128,30.4 321.571467,28.5149606 321.571467,26.2 L321.571467,15 C321.571467,11.1417323 318.525901,8 314.785733,8 C311.045565,8 308,11.1417323 308,15 L308,26.2 C308,31.6015748 312.263792,36 317.500027,36 C322.736262,36 327,31.6015748 327,26.2 L327,17.8 C327,17.0283465 326.39094,16.4 325.642907,16.4 C324.894873,16.4 324.28576,17.0283465 324.28576,17.8 Z" id="paper-clip"></path>
            </g>
        </g>
    </g>
</svg>