<?xml version="1.0" encoding="UTF-8"?>
<svg width="34px" height="34px" viewBox="0 0 34 34" version="1.1" xmlns="http://www.w3.org/2000/svg" xmlns:xlink="http://www.w3.org/1999/xlink">
    <!-- Generator: Sketch 51.2 (57519) - http://www.bohemiancoding.com/sketch -->
    <title>purple settings</title>
    <desc>Created with Sketch.</desc>
    <defs></defs>
    <g id="Symbols" stroke="none" stroke-width="1" fill="none" fill-rule="evenodd">
        <g id="settings" transform="translate(-212.000000, -18.000000)" fill="#36357F" fill-rule="nonzero">
            <g id="Tab-Bar-Copy-3">
                <path d="M228.715804,18.0136043 C228.154737,18.0239309 227.668573,18.4051365 227.524717,18.9475469 C227.285417,19.8224116 226.949314,20.6832865 226.590818,21.2890953 C226.232322,21.8949041 225.893664,22.165346 225.670432,22.2229946 C225.448804,22.2803401 225.0175,22.2009053 224.411691,21.8440122 C223.80571,21.4874222 223.097468,20.8957765 222.46264,20.2469153 C222.069235,19.8526246 221.463165,19.7644715 220.973737,20.0303539 C219.413846,20.8669305 217.988613,21.93081 216.764349,23.1975209 C216.379042,23.5973872 216.301993,24.2027926 216.574858,24.6864237 C217.024872,25.4734511 217.413426,26.3089016 217.59001,26.9873451 C217.766681,27.665832 217.705134,28.0912885 217.59001,28.2867135 C217.473804,28.4841741 217.131463,28.7578644 216.453063,28.9363976 C215.77462,29.1149308 214.853628,29.1888649 213.949052,29.1800725 C213.398006,29.1773602 212.909527,29.534099 212.744408,30.0598315 C212.272477,31.6181639 212,33.282698 212,35.0001035 C212,35.1927565 212.013427,35.2910754 212.013427,35.2979187 C212.023748,35.858974 212.404933,36.3451342 212.947326,36.4890063 C213.821454,36.727527 214.65855,37.0553577 215.261846,37.4093922 C215.8651,37.7632969 216.138876,38.0969746 216.195745,38.3162214 C216.252658,38.5356414 216.187516,38.9823209 215.830276,39.5885195 C215.473427,40.1948048 214.881825,40.8885376 214.23318,41.5240586 C213.829819,41.9108746 213.730508,42.5176504 213.989505,43.0128748 C214.826861,44.5778774 215.903214,45.9967009 217.170271,47.2223085 C217.572441,47.6141577 218.185816,47.6915192 218.672687,47.4117997 C219.461533,46.9616119 220.302744,46.5736638 220.987164,46.3966898 C221.671585,46.2196725 222.118827,46.2819989 222.313602,46.3966898 C222.510413,46.5125069 222.759892,46.853028 222.936216,47.5336371 C223.112583,48.2141163 223.177898,49.1441608 223.166334,50.0511199 C223.167215,50.6096062 223.536708,51.1004461 224.073163,51.2557643 C225.631495,51.7277382 227.282385,52.0001724 228.999932,52.0001724 C229.203024,52.0001724 229.270201,51.9858794 229.230051,51.9867456 C229.788533,51.9858398 230.279353,51.6163299 230.434651,51.0798731 C230.676334,50.2058314 230.993899,49.317973 231.355037,48.7112546 C231.716174,48.1045362 232.079088,47.8487339 232.302492,47.7908687 C232.524208,47.7333933 232.955858,47.7990981 233.561277,48.1562944 C234.166652,48.5149201 234.874331,49.1144486 235.510328,49.7669914 C235.897155,50.1703381 236.503929,50.2696314 236.999144,50.0106229 C238.571466,49.1709278 239.980847,48.0861285 241.208576,46.8163425 C241.60706,46.411918 241.684739,45.7904817 241.398067,45.3004128 C240.944588,44.5119994 240.561664,43.6830457 240.382958,42.999448 C240.204251,42.3158503 240.267487,41.8695606 240.382958,41.6730095 C240.500897,41.4722138 240.848175,41.2150255 241.533418,41.0368821 C242.218748,40.8586954 243.139956,40.7819893 244.050943,40.7932072 C244.615638,40.806226 245.119581,40.4407403 245.282614,39.8999348 C245.749737,38.3476228 245.999995,36.7047015 245.999995,35.0001901 C245.999995,34.806281 245.986135,34.71931 245.986568,34.7294884 C245.976241,34.1684379 245.595058,33.6822846 245.052669,33.5384137 C244.180187,33.2985503 243.341445,32.9765669 242.738149,32.6180278 C242.134939,32.2596621 241.849251,31.9088759 241.790736,31.6841285 C241.732611,31.4606372 241.801997,31.0169895 242.156162,30.4118304 C242.510239,29.8067145 243.105696,29.1110327 243.753301,28.4763346 C244.147592,28.0829294 244.235745,27.4768593 243.969863,26.9874318 C243.132723,25.4237719 242.06997,24.0169025 240.802654,22.7915982 C240.402805,22.4062982 239.797424,22.3292321 239.313795,22.6020637 C238.524688,23.0529878 237.679666,23.4269027 236.999274,23.6037034 C236.318925,23.7804608 235.898406,23.7205599 235.699906,23.6037034 C235.496945,23.4841615 235.228279,23.1487079 235.050222,22.4667561 C234.872166,21.784761 234.809189,20.859091 234.820148,19.9491867 C234.831446,19.3807017 234.45948,18.8755142 233.913275,18.7175154 C232.389463,18.2576257 230.775779,18.024519 229.108343,18.0136909 C229.072461,18.0076492 229.036333,18.0031693 229.000062,18.0002641 C228.80702,18.0001775 228.714418,18.0136043 228.715804,18.0136043 Z M229.083332,28.0001775 C232.978457,28.0001775 236.166665,31.1883975 236.166665,35.0834821 C236.166665,38.9787071 232.978457,42.166842 229.083332,42.166842 C225.188165,42.166842 222,38.9787071 222,35.0834821 C222,31.1883975 225.188165,28.0001775 229.083332,28.0001775 Z M228.999997,30.277781 C226.376227,30.277781 224.277776,32.376399 224.277776,34.9999742 C224.277776,37.6236931 226.376227,39.7222241 228.999997,39.7222241 C231.623638,39.7222241 233.722219,37.6236931 233.722219,34.9999742 C233.722219,32.376399 231.623638,30.277781 228.999997,30.277781 Z" id="purple-settings"></path>
            </g>
        </g>
    </g>
</svg>